<?xml version="1.0" encoding="UTF-8" standalone="no"?>
<!-- Created with Inkscape (http://www.inkscape.org/) -->

<svg
   xmlns:dc="http://purl.org/dc/elements/1.1/"
   xmlns:cc="http://creativecommons.org/ns#"
   xmlns:rdf="http://www.w3.org/1999/02/22-rdf-syntax-ns#"
   xmlns:svg="http://www.w3.org/2000/svg"
   xmlns="http://www.w3.org/2000/svg"
   xmlns:sodipodi="http://sodipodi.sourceforge.net/DTD/sodipodi-0.dtd"
   xmlns:inkscape="http://www.inkscape.org/namespaces/inkscape"
   width="195.03571mm"
   height="195.79167mm"
   viewBox="0 0 195.03571 195.79167"
   version="1.1"
   id="svg8"
   inkscape:version="0.92.2 5c3e80d, 2017-08-06"
   sodipodi:docname="spotihook.svg">
  <defs
     id="defs2" />
  <sodipodi:namedview
     id="base"
     pagecolor="#ffffff"
     bordercolor="#666666"
     borderopacity="1.0"
     inkscape:pageopacity="0.0"
     inkscape:pageshadow="2"
     inkscape:zoom="0.35"
     inkscape:cx="48.571455"
     inkscape:cy="348.5714"
     inkscape:document-units="mm"
     inkscape:current-layer="layer2"
     showgrid="false"
     inkscape:window-width="1440"
     inkscape:window-height="790"
     inkscape:window-x="0"
     inkscape:window-y="1"
     inkscape:window-maximized="1" />
  <metadata
     id="metadata5">
    <rdf:RDF>
      <cc:Work
         rdf:about="">
        <dc:format>image/svg+xml</dc:format>
        <dc:type
           rdf:resource="http://purl.org/dc/dcmitype/StillImage" />
        <dc:title></dc:title>
      </cc:Work>
    </rdf:RDF>
  </metadata>
  <g
     inkscape:groupmode="layer"
     id="layer2"
     inkscape:label="bg"
     style="display:inline"
     transform="translate(-7.5595169,-45.267845)">
    <circle
       transform="scale(1,-1)"
       r="96.761909"
       cy="-144.29761"
       cx="105.83332"
       id="circle938"
       style="fill:#000000;fill-opacity:0.18781726;stroke-width:0.26458332" />
  </g>
  <g
     inkscape:label="Layer 1"
     inkscape:groupmode="layer"
     id="layer1"
     transform="translate(-7.5595169,-45.267845)">
    <circle
       style="fill:#65d36e;fill-opacity:1;stroke-width:0.26458332"
       id="path12"
       cx="104.32143"
       cy="-142.02975"
       r="96.761909"
       transform="scale(1,-1)" />
    <g
       style="fill:#000000"
       id="g916"
       transform="matrix(1.6993372,0,0,1.6993372,27.068095,54.906286)">
      <path
         id="path905"
         d="m 75.476,71.931 c 1.42,-1.42 1.76,-4.401 0,-5.762 -2.928,-2.264 -5.929,-4.417 -8.966,-6.522 -0.715,-0.576 -1.412,-1.121 -2.036,-1.627 -0.541,-0.439 -1.133,-0.729 -1.738,-0.907 -2.457,-1.232 -4.708,0.536 -5.298,2.788 -0.237,0.349 -0.446,0.725 -0.588,1.14 -0.587,1.703 -1.531,3.729 -2.62,5.129 -0.655,0.844 -1.069,1.812 -1.14,2.782 -2.16,2.231 -1.236,7.025 2.799,7.025 0.362,0 0.693,-0.046 1.006,-0.118 0.319,0.073 0.659,0.121 1.031,0.118 1.18,-0.01 2.714,-0.013 4.336,-0.127 0.814,2.761 0.915,4.898 -1.738,7.786 -2.604,2.83 -6.99,2.211 -10.353,1.979 C 41.183,84.993 34.415,79.969 34.829,70.623 35.23,61.557 40.494,53 43.183,44.519 45.412,37.492 43.643,29.5 43.664,22.264 48.661,19.929 51.037,14.393 48.08,9.408 45.166,4.495 38.639,2.999 33.486,4.749 c -5.552,1.886 -11.613,6.9 -8.688,13.321 1.804,3.96 6.401,5.827 10.734,6.198 0.15,6.048 0.977,12.089 -0.208,18.084 -1.447,7.327 -5.658,14.225 -7.572,21.505 -2.368,9.009 -1.5,19.316 6.987,24.768 7.437,4.778 18.032,7.119 26.524,4.01 4.273,-1.565 7.634,-5.496 9.434,-9.539 1.407,-3.164 0.519,-6.376 -0.549,-9.485 M 41.354,14.26 c -0.006,-0.021 -0.009,-0.027 -0.015,-0.046 h 0.001 c 0.003,0.015 0.01,0.03 0.014,0.046 z m -0.028,-0.091 v 0 c -0.005,-0.013 -0.007,-0.022 -0.011,-0.034 l 0.001,-10e-4 c 0.003,0.012 0.007,0.022 0.01,0.035 z m -0.012,-0.038 c -0.002,-0.004 -0.004,-0.011 -0.006,-0.018 0,0 0,-10e-4 10e-4,-10e-4 0.002,0.006 0.004,0.013 0.005,0.019 0,0 0,0 0,0 z m -0.025,0.064 c -0.001,0 -0.002,0 -0.002,10e-4 10e-4,-0.003 10e-4,-0.003 0.003,-0.006 -10e-4,0.001 0,0.001 -10e-4,0.005 z m -3.13,1.965 c -2.319,0.105 -4.654,-0.347 -5.878,-1.469 0.641,-0.787 2.165,-1.512 3.254,-2.021 0.995,-0.463 2.41,-0.608 3.054,-0.492 1.347,0.243 1.628,0.492 2.365,1.233 0.104,0.105 0.202,0.261 0.238,0.302 0.042,0.123 0.078,0.245 0.11,0.369 0,0.002 0,0.003 0,0.003 -0.139,-0.414 -0.115,0.223 -0.024,0.094 -0.002,0.008 -0.005,0.021 -0.005,0.025 -0.05,0.037 -0.121,0.097 -0.248,0.226 m -8.942,0.054 c -0.077,-0.114 -0.062,-0.14 0,0 z"
         inkscape:connector-curvature="0" />
    </g>
  </g>
</svg>
